  0
SECTION
  2
HEADER
  9
$ACADVER
  1
AC1014
  9
$ACADMAINTVER
 70
     9
  9
$DWGCODEPAGE
  3
ANSI_1252
  9
$INSBASE
 10
0.0
 20
0.0
 30
0.0
  9
$EXTMIN
 10
103.0857990436511
 20
-76.5391353506468
 30
0.0
  9
$EXTMAX
 10
334.0855080855757
 20
88.4608646493532
 30
0.0
  9
$LIMMIN
 10
0.0
 20
0.0
  9
$LIMMAX
 10
420.0
 20
297.0
  9
$ORTHOMODE
 70
     0
  9
$REGENMODE
 70
     1
  9
$FILLMODE
 70
     1
  9
$QTEXTMODE
 70
     0
  9
$MIRRTEXT
 70
     1
  9
$DRAGMODE
 70
     2
  9
$LTSCALE
 40
1.0
  9
$OSMODE
 70
    55
  9
$ATTMODE
 70
     1
  9
$TEXTSIZE
 40
2.5
  9
$TRACEWID
 40
1.0
  9
$TEXTSTYLE
  7
STANDARD
  9
$CLAYER
  8
DIMS
  9
$CELTYPE
  6
BYLAYER
  9
$CECOLOR
 62
   256
  9
$CELTSCALE
 40
1.0
  9
$DELOBJ
 70
     1
  9
$DISPSILH
 70
     0
  9
$DIMSCALE
 40
1.0
  9
$DIMASZ
 40
2.5
  9
$DIMEXO
 40
0.625
  9
$DIMDLI
 40
3.75
  9
$DIMRND
 40
0.0
  9
$DIMDLE
 40
0.0
  9
$DIMEXE
 40
1.25
  9
$DIMTP
 40
0.0
  9
$DIMTM
 40
0.0
  9
$DIMTXT
 40
2.5
  9
$DIMCEN
 40
2.5
  9
$DIMTSZ
 40
0.0
  9
$DIMTOL
 70
     0
  9
$DIMLIM
 70
     0
  9
$DIMTIH
 70
     0
  9
$DIMTOH
 70
     0
  9
$DIMSE1
 70
     0
  9
$DIMSE2
 70
     0
  9
$DIMTAD
 70
     1
  9
$DIMZIN
 70
     8
  9
$DIMBLK
  1

  9
$DIMASO
 70
     1
  9
$DIMSHO
 70
     1
  9
$DIMPOST
  1

  9
$DIMAPOST
  1

  9
$DIMALT
 70
     0
  9
$DIMALTD
 70
     3
  9
$DIMALTF
 40
0.03937007874016
  9
$DIMLFAC
 40
1.0
  9
$DIMTOFL
 70
     1
  9
$DIMTVP
 40
0.0
  9
$DIMTIX
 70
     0
  9
$DIMSOXD
 70
     0
  9
$DIMSAH
 70
     0
  9
$DIMBLK1
  1

  9
$DIMBLK2
  1

  9
$DIMSTYLE
  2
ISO-25
  9
$DIMCLRD
 70
     0
  9
$DIMCLRE
 70
     0
  9
$DIMCLRT
 70
     0
  9
$DIMTFAC
 40
1.0
  9
$DIMGAP
 40
0.625
  9
$DIMJUST
 70
     0
  9
$DIMSD1
 70
     0
  9
$DIMSD2
 70
     0
  9
$DIMTOLJ
 70
     0
  9
$DIMTZIN
 70
     8
  9
$DIMALTZ
 70
     0
  9
$DIMALTTZ
 70
     0
  9
$DIMFIT
 70
     3
  9
$DIMUPT
 70
     0
  9
$DIMUNIT
 70
     2
  9
$DIMDEC
 70
     2
  9
$DIMTDEC
 70
     2
  9
$DIMALTU
 70
     2
  9
$DIMALTTD
 70
     3
  9
$DIMTXSTY
  7
STANDARD
  9
$DIMAUNIT
 70
     0
  9
$LUNITS
 70
     2
  9
$LUPREC
 70
     4
  9
$SKETCHINC
 40
1.0
  9
$FILLETRAD
 40
10.0
  9
$AUNITS
 70
     0
  9
$AUPREC
 70
     0
  9
$MENU
  1
.
  9
$ELEVATION
 40
0.0
  9
$PELEVATION
 40
0.0
  9
$THICKNESS
 40
0.0
  9
$LIMCHECK
 70
     0
  9
$BLIPMODE
 70
     0
  9
$CHAMFERA
 40
10.0
  9
$CHAMFERB
 40
10.0
  9
$CHAMFERC
 40
20.0
  9
$CHAMFERD
 40
0.0
  9
$SKPOLY
 70
     0
  9
$TDCREATE
 40
2456291.632329282
  9
$TDUPDATE
 40
2456366.289182211
  9
$TDINDWG
 40
1.1990133449
  9
$TDUSRTIMER
 40
1.1990122569
  9
$USRTIMER
 70
     1
  9
$ANGBASE
 50
0.0
  9
$ANGDIR
 70
     0
  9
$PDMODE
 70
     0
  9
$PDSIZE
 40
0.0
  9
$PLINEWID
 40
0.0
  9
$COORDS
 70
     1
  9
$SPLFRAME
 70
     0
  9
$SPLINETYPE
 70
     6
  9
$SPLINESEGS
 70
     8
  9
$ATTDIA
 70
     0
  9
$ATTREQ
 70
     1
  9
$HANDLING
 70
 22529
  9
$HANDSEED
  5
271
  9
$SURFTAB1
 70
     6
  9
$SURFTAB2
 70
     6
  9
$SURFTYPE
 70
     6
  9
$SURFU
 70
     6
  9
$SURFV
 70
     6
  9
$UCSNAME
  2

  9
$UCSORG
 10
0.0
 20
0.0
 30
0.0
  9
$UCSXDIR
 10
1.0
 20
0.0
 30
0.0
  9
$UCSYDIR
 10
0.0
 20
1.0
 30
0.0
  9
$PUCSNAME
  2

  9
$PUCSORG
 10
0.0
 20
0.0
 30
0.0
  9
$PUCSXDIR
 10
1.0
 20
0.0
 30
0.0
  9
$PUCSYDIR
 10
0.0
 20
1.0
 30
0.0
  9
$USERI1
 70
     0
  9
$USERI2
 70
     0
  9
$USERI3
 70
     0
  9
$USERI4
 70
     0
  9
$USERI5
 70
     0
  9
$USERR1
 40
0.0
  9
$USERR2
 40
0.0
  9
$USERR3
 40
0.0
  9
$USERR4
 40
0.0
  9
$USERR5
 40
0.0
  9
$WORLDVIEW
 70
     1
  9
$SHADEDGE
 70
     3
  9
$SHADEDIF
 70
    70
  9
$TILEMODE
 70
     1
  9
$MAXACTVP
 70
    64
  9
$PINSBASE
 10
0.0
 20
0.0
 30
0.0
  9
$PLIMCHECK
 70
     0
  9
$PEXTMIN
 10
0.0
 20
0.0
 30
0.0
  9
$PEXTMAX
 10
0.0
 20
0.0
 30
0.0
  9
$PLIMMIN
 10
0.0
 20
0.0
  9
$PLIMMAX
 10
12.0
 20
9.0
  9
$UNITMODE
 70
     0
  9
$VISRETAIN
 70
     1
  9
$PLINEGEN
 70
     0
  9
$PSLTSCALE
 70
     1
  9
$TREEDEPTH
 70
  3020
  9
$PICKSTYLE
 70
     1
  9
$CMLSTYLE
  2
STANDARD
  9
$CMLJUST
 70
     0
  9
$CMLSCALE
 40
20.0
  9
$PROXYGRAPHICS
 70
     1
  9
$MEASUREMENT
 70
     1
  0
ENDSEC
  0
SECTION
  2
CLASSES
  0
CLASS
  1
ACDBDICTIONARYWDFLT
  2
AcDbDictionaryWithDefault
  3
AutoCAD 2000
 90
        0
280
     0
281
     0
  0
CLASS
  1
ACDBPLACEHOLDER
  2
AcDbPlaceHolder
  3
AutoCAD 2000
 90
        0
280
     0
281
     0
  0
CLASS
  1
LAYOUT
  2
AcDbLayout
  3
AutoCAD 2000
 90
        0
280
     0
281
     0
  0
CLASS
  1
DICTIONARYVAR
  2
AcDbDictionaryVar
  3
AutoCAD 2000
 90
        0
280
     0
281
     0
  0
CLASS
  1
DIMASSOC
  2
AcDbDimAssoc
  3
"AcDbDimAssoc|Product Desc:     AcDim ARX App For Dimension|Company:          Autodesk, Inc.|WEB Address:      www.autodesk.com"
 90
        0
280
     0
281
     0
  0
CLASS
  1
LONG_TRANSACTION
  2
AcDbLongTransaction
  3
AutoCAD 2000
 90
        0
280
     0
281
     0
  0
CLASS
  1
LWPOLYLINE
  2
AcDbPolyline
  3
AutoCAD 2000
 90
        0
280
     0
281
     1
  0
CLASS
  1
HATCH
  2
AcDbHatch
  3
AutoCAD 2000
 90
        0
280
     0
281
     1
  0
CLASS
  1
XRECORD
  2
AcDbXrecord
  3
AutoCAD 2000
 90
        0
280
     0
281
     0
  0
ENDSEC
  0
SECTION
  2
TABLES
  0
TABLE
  2
VPORT
  5
8
330
0
100
AcDbSymbolTable
 70
     7
  0
VPORT
  5
23E
330
8
100
AcDbSymbolTableRecord
100
AcDbViewportTableRecord
  2
*ACTIVE
 70
     0
 10
0.0
 20
0.0
 11
1.0
 21
1.0
 12
427.3502092051249
 22
-1.637277256222745
 13
0.0
 23
0.0
 14
10.0
 24
10.0
 15
10.0
 25
10.0
 16
0.0
 26
0.0
 36
1.0
 17
0.0
 27
0.0
 37
0.0
 40
293.1385854382514
 41
2.207017543859649
 42
50.0
 43
0.0
 44
0.0
 50
0.0
 51
0.0
 71
     0
 72
   100
 73
     1
 74
     2
 75
     0
 76
     0
 77
     0
 78
     0
  0
ENDTAB
  0
TABLE
  2
LTYPE
  5
5
330
0
100
AcDbSymbolTable
 70
     2
  0
LTYPE
  5
14
330
5
100
AcDbSymbolTableRecord
100
AcDbLinetypeTableRecord
  2
BYBLOCK
 70
     0
  3

 72
    65
 73
     0
 40
0.0
  0
LTYPE
  5
15
330
5
100
AcDbSymbolTableRecord
100
AcDbLinetypeTableRecord
  2
BYLAYER
 70
     0
  3

 72
    65
 73
     0
 40
0.0
  0
LTYPE
  5
16
330
5
100
AcDbSymbolTableRecord
100
AcDbLinetypeTableRecord
  2
CONTINUOUS
 70
     0
  3
Solid line
 72
    65
 73
     0
 40
0.0
  0
LTYPE
  5
70
330
5
100
AcDbSymbolTableRecord
100
AcDbLinetypeTableRecord
  2
HIDDEN2
 70
     0
  3
Hidden (.5x) _ _ _ _ _ _ _ _ _ _ _ _ _ _ _ _ _
 72
    65
 73
     2
 40
4.762499999999999
 49
3.174999999999999
 74
     0
 49
-1.587499999999999
 74
     0
  0
ENDTAB
  0
TABLE
  2
LAYER
  5
2
330
0
100
AcDbSymbolTable
 70
     4
  0
LAYER
  5
10
330
2
100
AcDbSymbolTableRecord
100
AcDbLayerTableRecord
  2
0
 70
     0
 62
     7
  6
CONTINUOUS
  0
LAYER
  5
90
330
2
100
AcDbSymbolTableRecord
100
AcDbLayerTableRecord
  2
DEFPOINTS
 70
     0
 62
     7
  6
CONTINUOUS
  0
LAYER
  5
F0
330
2
100
AcDbSymbolTableRecord
100
AcDbLayerTableRecord
  2
LAYER1
 70
     0
 62
    -7
  6
CONTINUOUS
  0
LAYER
  5
14B
330
2
100
AcDbSymbolTableRecord
100
AcDbLayerTableRecord
  2
DIMS
 70
     0
 62
     3
  6
CONTINUOUS
  0
ENDTAB
  0
TABLE
  2
STYLE
  5
3
330
0
100
AcDbSymbolTable
 70
     2
  0
STYLE
  5
11
330
3
100
AcDbSymbolTableRecord
100
AcDbTextStyleTableRecord
  2
STANDARD
 70
     0
 40
0.0
 41
1.0
 50
0.0
 71
     0
 42
2.5
  3
txt
  4

  0
STYLE
  5
6F
330
3
100
AcDbSymbolTableRecord
100
AcDbTextStyleTableRecord
  2

 70
     1
 40
0.0
 41
1.0
 50
0.0
 71
     0
 42
2.5
  3
ltypeshp.shx
  4

  0
ENDTAB
  0
TABLE
  2
VIEW
  5
6
330
0
100
AcDbSymbolTable
 70
     0
  0
ENDTAB
  0
TABLE
  2
UCS
  5
7
330
0
100
AcDbSymbolTable
 70
     0
  0
ENDTAB
  0
TABLE
  2
APPID
  5
9
330
0
100
AcDbSymbolTable
 70
     1
  0
APPID
  5
12
330
9
100
AcDbSymbolTableRecord
100
AcDbRegAppTableRecord
  2
ACAD
 70
     0
  0
ENDTAB
  0
TABLE
  2
DIMSTYLE
  5
A
330
0
100
AcDbSymbolTable
 70
     1
  0
DIMSTYLE
105
27
102
{ACAD_REACTORS
330
8F
330
C0
330
F6
330
108
330
132
330
D8
330
A8
330
11A
330
222
102
}
330
A
100
AcDbSymbolTableRecord
100
AcDbDimStyleTableRecord
  2
ISO-25
 70
     0
  3

  4

  5

  6

  7

 40
1.0
 41
2.5
 42
0.625
 43
3.75
 44
1.25
 45
0.0
 46
0.0
 47
0.0
 48
0.0
140
2.5
141
2.5
142
0.0
143
0.03937007874016
144
1.0
145
0.0
146
1.0
147
0.625
 71
     0
 72
     0
 73
     0
 74
     0
 75
     0
 76
     0
 77
     1
 78
     8
170
     0
171
     3
172
     1
173
     0
174
     0
175
     0
176
     0
177
     0
178
     0
270
     2
271
     2
272
     2
273
     2
274
     3
340
11
275
     0
280
     0
281
     0
282
     0
283
     0
284
     8
285
     0
286
     0
287
     3
288
     0
  0
ENDTAB
  0
TABLE
  2
BLOCK_RECORD
  5
1
330
0
100
AcDbSymbolTable
 70
    17
  0
BLOCK_RECORD
  5
1F
102
{ACAD_XDICTIONARY
360
260
102
}
330
1
100
AcDbSymbolTableRecord
100
AcDbBlockTableRecord
  2
*MODEL_SPACE
  0
BLOCK_RECORD
  5
50
102
{ACAD_XDICTIONARY
360
262
102
}
330
1
100
AcDbSymbolTableRecord
100
AcDbBlockTableRecord
  2
*PAPER_SPACE
  0
BLOCK_RECORD
  5
91
330
1
100
AcDbSymbolTableRecord
100
AcDbBlockTableRecord
  2
*D1
  0
BLOCK_RECORD
  5
A9
330
1
100
AcDbSymbolTableRecord
100
AcDbBlockTableRecord
  2
*D2
  0
BLOCK_RECORD
  5
C1
330
1
100
AcDbSymbolTableRecord
100
AcDbBlockTableRecord
  2
*D3
  0
BLOCK_RECORD
  5
D9
330
1
100
AcDbSymbolTableRecord
100
AcDbBlockTableRecord
  2
*D4
  0
BLOCK_RECORD
  5
F7
330
1
100
AcDbSymbolTableRecord
100
AcDbBlockTableRecord
  2
*D5
  0
BLOCK_RECORD
  5
109
330
1
100
AcDbSymbolTableRecord
100
AcDbBlockTableRecord
  2
*D6
  0
BLOCK_RECORD
  5
11B
330
1
100
AcDbSymbolTableRecord
100
AcDbBlockTableRecord
  2
*D7
  0
BLOCK_RECORD
  5
133
330
1
100
AcDbSymbolTableRecord
100
AcDbBlockTableRecord
  2
*D8
  0
BLOCK_RECORD
  5
1A5
330
1
100
AcDbSymbolTableRecord
100
AcDbBlockTableRecord
  2
A$C250140E7
  0
BLOCK_RECORD
  5
223
330
1
100
AcDbSymbolTableRecord
100
AcDbBlockTableRecord
  2
*D16
  0
ENDTAB
  0
ENDSEC
  0
SECTION
  2
BLOCKS
  0
BLOCK
  5
20
330
1F
100
AcDbEntity
  8
0
100
AcDbBlockBegin
  2
*MODEL_SPACE
 70
     0
 10
0.0
 20
0.0
 30
0.0
  3
*MODEL_SPACE
  1

  0
ENDBLK
  5
21
330
1F
100
AcDbEntity
  8
0
100
AcDbBlockEnd
  0
BLOCK
  5
52
330
50
100
AcDbEntity
 67
     1
  8
0
100
AcDbBlockBegin
  2
*PAPER_SPACE
 70
     0
 10
0.0
 20
0.0
 30
0.0
  3
*PAPER_SPACE
  1

  0
ENDBLK
  5
53
330
50
100
AcDbEntity
 67
     1
  8
0
100
AcDbBlockEnd
  0
BLOCK
  5
9B
330
91
100
AcDbEntity
  8
0
100
AcDbBlockBegin
  2
*D1
 70
     1
 10
0.0
 20
0.0
 30
0.0
  3
*D1
  1

  0
LINE
  5
14C
330
91
100
AcDbEntity
  8
DIMS
 62
     0
100
AcDbLine
 10
194.4829117212781
 20
-12.78913535064679
 30
0.0
 11
168.8989865091534
 21
-12.78913535064678
 31
0.0
  0
LINE
  5
14D
330
91
100
AcDbEntity
  8
DIMS
 62
     0
100
AcDbLine
 10
194.4829117212781
 20
24.7108646493532
 30
0.0
 11
168.8989865091534
 21
24.71086464935321
 31
0.0
  0
LINE
  5
14E
330
91
100
AcDbEntity
  8
DIMS
 62
     0
100
AcDbLine
 10
170.1489865091534
 20
-10.28913535064678
 30
0.0
 11
170.1489865091534
 21
22.21086464935321
 31
0.0
  0
SOLID
  5
14F
330
91
100
AcDbEntity
  8
DIMS
 62
     0
100
AcDbTrace
 10
169.7323198424868
 20
-10.28913535064678
 30
0.0
 11
170.5656531758201
 21
-10.28913535064678
 31
0.0
 12
170.1489865091534
 22
-12.78913535064678
 32
0.0
 13
170.1489865091534
 23
-12.78913535064678
 33
0.0
  0
SOLID
  5
150
330
91
100
AcDbEntity
  8
DIMS
 62
     0
100
AcDbTrace
 10
169.7323198424868
 20
22.21086464935321
 30
0.0
 11
170.5656531758201
 21
22.21086464935321
 31
0.0
 12
170.1489865091534
 22
24.71086464935321
 32
0.0
 13
170.1489865091534
 23
24.71086464935321
 33
0.0
  0
MTEXT
  5
151
330
91
100
AcDbEntity
  8
DIMS
 62
     0
100
AcDbMText
 10
168.0656531758201
 20
5.960864649353237
 30
0.0
 40
2.5
 41
0.0
 71
     5
 72
     1
  1
37,5
 11
0.0000000000000001
 21
1.0
 31
0.0
1001
ACAD
1000
MTEXTBEGIN
1070
    73
1070
     1
1070
    44
1040
1.0
1070
    74
1070
     0
1000
MTEXTEND
  0
POINT
  5
152
330
91
100
AcDbEntity
  8
DEFPOINTS
 62
     0
100
AcDbPoint
 10
195.1079117212781
 20
-12.78913535064679
 30
0.0
  0
POINT
  5
153
330
91
100
AcDbEntity
  8
DEFPOINTS
 62
     0
100
AcDbPoint
 10
195.1079117212781
 20
24.7108646493532
 30
0.0
  0
POINT
  5
154
330
91
100
AcDbEntity
  8
DEFPOINTS
 62
     0
100
AcDbPoint
 10
170.1489865091534
 20
24.71086464935321
 30
0.0
  0
ENDBLK
  5
9C
330
91
100
AcDbEntity
  8
0
100
AcDbBlockEnd
  0
BLOCK
  5
B3
330
A9
100
AcDbEntity
  8
0
100
AcDbBlockBegin
  2
*D2
 70
     1
 10
0.0
 20
0.0
 30
0.0
  3
*D2
  1

  0
LINE
  5
15E
330
A9
100
AcDbEntity
  8
DIMS
 62
     0
100
AcDbLine
 10
195.1079117212781
 20
25.3358646493532
 30
0.0
 11
195.1079117212781
 21
80.08293430932747
 31
0.0
  0
LINE
  5
15F
330
A9
100
AcDbEntity
  8
DIMS
 62
     0
100
AcDbLine
 10
260.059817005111
 20
25.33586464935317
 30
0.0
 11
260.059817005111
 21
80.08293430932747
 31
0.0
  0
LINE
  5
160
330
A9
100
AcDbEntity
  8
DIMS
 62
     0
100
AcDbLine
 10
197.6079117212781
 20
78.83293430932747
 30
0.0
 11
257.559817005111
 21
78.83293430932747
 31
0.0
  0
SOLID
  5
161
330
A9
100
AcDbEntity
  8
DIMS
 62
     0
100
AcDbTrace
 10
197.6079117212781
 20
79.24960097599414
 30
0.0
 11
197.6079117212781
 21
78.4162676426608
 31
0.0
 12
195.1079117212781
 22
78.83293430932747
 32
0.0
 13
195.1079117212781
 23
78.83293430932747
 33
0.0
  0
SOLID
  5
162
330
A9
100
AcDbEntity
  8
DIMS
 62
     0
100
AcDbTrace
 10
257.559817005111
 20
79.24960097599414
 30
0.0
 11
257.559817005111
 21
78.4162676426608
 31
0.0
 12
260.059817005111
 22
78.83293430932747
 32
0.0
 13
260.059817005111
 23
78.83293430932747
 33
0.0
  0
MTEXT
  5
163
330
A9
100
AcDbEntity
  8
DIMS
 62
     0
100
AcDbMText
 10
227.5838643631946
 20
80.91626764266079
 30
0.0
 40
2.5
 41
0.0
 71
     5
 72
     1
  1
64,95
1001
ACAD
1000
MTEXTBEGIN
1070
    73
1070
     1
1070
    44
1040
1.0
1070
    74
1070
     0
1000
MTEXTEND
  0
POINT
  5
164
330
A9
100
AcDbEntity
  8
DEFPOINTS
 62
     0
100
AcDbPoint
 10
195.1079117212781
 20
24.7108646493532
 30
0.0
  0
POINT
  5
165
330
A9
100
AcDbEntity
  8
DEFPOINTS
 62
     0
100
AcDbPoint
 10
260.059817005111
 20
24.71086464935317
 30
0.0
  0
POINT
  5
166
330
A9
100
AcDbEntity
  8
DEFPOINTS
 62
     0
100
AcDbPoint
 10
260.059817005111
 20
78.83293430932747
 30
0.0
  0
ENDBLK
  5
B4
330
A9
100
AcDbEntity
  8
0
100
AcDbBlockEnd
  0
BLOCK
  5
CB
330
C1
100
AcDbEntity
  8
0
100
AcDbBlockBegin
  2
*D3
 70
     1
 10
0.0
 20
0.0
 30
0.0
  3
*D3
  1

  0
LINE
  5
182
330
C1
100
AcDbEntity
  8
DIMS
 62
     0
100
AcDbLine
 10
195.4204117212781
 20
25.25213052671849
 30
0.0
 11
203.1274753849993
 21
38.60115636945157
 31
0.0
  0
LINE
  5
183
330
C1
100
AcDbEntity
  8
DIMS
 62
     0
100
AcDbLine
 10
227.8963643631946
 20
6.502130526718474
 30
0.0
 11
235.6034280269158
 21
19.85115636945155
 31
0.0
  0
LINE
  5
184
330
C1
100
AcDbEntity
  8
DIMS
 62
     0
100
AcDbLine
 10
204.6675388944604
 20
36.26862461472102
 30
0.0
 11
232.8133645174547
 21
20.018624614721
 31
0.0
  0
SOLID
  5
185
330
C1
100
AcDbEntity
  8
DIMS
 62
     0
100
AcDbTrace
 10
204.8758722277937
 20
36.62946853296452
 30
0.0
 11
204.4592055611271
 21
35.90778069647751
 31
0.0
 12
202.5024753849993
 22
37.51862461472102
 32
0.0
 13
202.5024753849993
 23
37.51862461472102
 33
0.0
  0
SOLID
  5
186
330
C1
100
AcDbEntity
  8
DIMS
 62
     0
100
AcDbTrace
 10
233.021697850788
 20
20.37946853296451
 30
0.0
 11
232.6050311841213
 21
19.6577806964775
 31
0.0
 12
234.9784280269158
 22
18.768624614721
 32
0.0
 13
234.9784280269158
 23
18.768624614721
 33
0.0
  0
MTEXT
  5
187
330
C1
100
AcDbEntity
  8
DIMS
 62
     0
100
AcDbMText
 10
219.7821183726242
 20
29.94784420593859
 30
0.0
 40
2.5
 41
0.0
 71
     5
 72
     1
  1
37,5
 11
0.8660254037844387
 21
-0.5000000000000004
 31
0.0
1001
ACAD
1000
MTEXTBEGIN
1070
    73
1070
     1
1070
    44
1040
1.0
1070
    74
1070
     0
1000
MTEXTEND
  0
POINT
  5
188
330
C1
100
AcDbEntity
  8
DEFPOINTS
 62
     0
100
AcDbPoint
 10
195.1079117212781
 20
24.71086464935321
 30
0.0
  0
POINT
  5
189
330
C1
100
AcDbEntity
  8
DEFPOINTS
 62
     0
100
AcDbPoint
 10
227.5838643631946
 20
5.960864649353197
 30
0.0
  0
POINT
  5
18A
330
C1
100
AcDbEntity
  8
DEFPOINTS
 62
     0
100
AcDbPoint
 10
234.9784280269158
 20
18.768624614721
 30
0.0
  0
ENDBLK
  5
CC
330
C1
100
AcDbEntity
  8
0
100
AcDbBlockEnd
  0
BLOCK
  5
E3
330
D9
100
AcDbEntity
  8
0
100
AcDbBlockBegin
  2
*D4
 70
     1
 10
0.0
 20
0.0
 30
0.0
  3
*D4
  1

  0
LINE
  5
155
330
D9
100
AcDbEntity
  8
DIMS
 62
     0
100
AcDbLine
 10
226.9588643631946
 20
58.4608646493532
 30
0.0
 11
173.9098955659342
 21
58.46086464935321
 31
0.0
  0
LINE
  5
156
330
D9
100
AcDbEntity
  8
DIMS
 62
     0
100
AcDbLine
 10
226.9588643631946
 20
43.4608646493532
 30
0.0
 11
173.9098955659342
 21
43.46086464935321
 31
0.0
  0
LINE
  5
157
330
D9
100
AcDbEntity
  8
DIMS
 62
     0
100
AcDbLine
 10
175.1598955659342
 20
55.96086464935321
 30
0.0
 11
175.1598955659342
 21
45.96086464935321
 31
0.0
  0
SOLID
  5
158
330
D9
100
AcDbEntity
  8
DIMS
 62
     0
100
AcDbTrace
 10
174.7432288992675
 20
55.96086464935321
 30
0.0
 11
175.5765622326008
 21
55.96086464935321
 31
0.0
 12
175.1598955659342
 22
58.46086464935321
 32
0.0
 13
175.1598955659342
 23
58.46086464935321
 33
0.0
  0
SOLID
  5
159
330
D9
100
AcDbEntity
  8
DIMS
 62
     0
100
AcDbTrace
 10
174.7432288992675
 20
45.96086464935321
 30
0.0
 11
175.5765622326008
 21
45.96086464935321
 31
0.0
 12
175.1598955659342
 22
43.46086464935321
 32
0.0
 13
175.1598955659342
 23
43.46086464935321
 33
0.0
  0
MTEXT
  5
15A
330
D9
100
AcDbEntity
  8
DIMS
 62
     0
100
AcDbMText
 10
173.2848955659342
 20
50.96086464935324
 30
0.0
 40
2.5
 41
0.0
 71
     5
 72
     1
  1
15
 11
0.0000000000000001
 21
1.0
 31
0.0
1001
ACAD
1000
MTEXTBEGIN
1070
    73
1070
     1
1070
    44
1040
1.0
1070
    74
1070
     0
1000
MTEXTEND
  0
POINT
  5
15B
330
D9
100
AcDbEntity
  8
DEFPOINTS
 62
     0
100
AcDbPoint
 10
227.5838643631946
 20
58.4608646493532
 30
0.0
  0
POINT
  5
15C
330
D9
100
AcDbEntity
  8
DEFPOINTS
 62
     0
100
AcDbPoint
 10
227.5838643631946
 20
43.4608646493532
 30
0.0
  0
POINT
  5
15D
330
D9
100
AcDbEntity
  8
DEFPOINTS
 62
     0
100
AcDbPoint
 10
175.1598955659342
 20
43.46086464935321
 30
0.0
  0
ENDBLK
  5
E4
330
D9
100
AcDbEntity
  8
0
100
AcDbBlockEnd
  0
BLOCK
  5
FE
330
F7
100
AcDbEntity
  8
0
100
AcDbBlockBegin
  2
*D5
 70
     1
 10
0.0
 20
0.0
 30
0.0
  3
*D5
  1

  0
LINE
  5
167
330
F7
100
AcDbEntity
  8
DIMS
 62
     0
100
AcDbLine
 10
303.663301509634
 20
56.31809346531376
 30
0.0
 11
273.4472105998663
 21
36.31796385160187
 31
0.0
  0
MTEXT
  5
168
330
F7
100
AcDbEntity
  8
DIMS
 62
     0
100
AcDbMText
 10
297.6491170905079
 20
54.83564908919163
 30
0.0
 40
2.5
 41
0.0
 71
     5
 72
     1
  1
R52,5
 11
0.8338790224849411
 21
0.5519472582227029
 31
0.0
1001
ACAD
1000
MTEXTBEGIN
1070
    73
1070
     1
1070
    44
1040
1.0
1070
    74
1070
     0
1000
MTEXTEND
  0
LINE
  5
169
330
F7
100
AcDbEntity
  8
DIMS
 62
     0
100
AcDbLine
 10
227.5838643631946
 20
5.960864649353212
 30
0.0
 11
271.362513043654
 21
34.9380957060451
 31
0.0
  0
SOLID
  5
16A
330
F7
100
AcDbEntity
  8
DIMS
 62
     0
100
AcDbTrace
 10
273.2172325756069
 20
36.66541344430394
 30
0.0
 11
273.6771886241258
 21
35.97051425889981
 31
0.0
 12
271.362513043654
 22
34.9380957060451
 32
0.0
 13
271.362513043654
 23
34.9380957060451
 33
0.0
  0
POINT
  5
16B
330
F7
100
AcDbEntity
  8
DEFPOINTS
 62
     0
100
AcDbPoint
 10
271.362513043654
 20
34.9380957060451
 30
0.0
  0
POINT
  5
16C
330
F7
100
AcDbEntity
  8
DEFPOINTS
 62
     0
100
AcDbPoint
 10
227.5838643631946
 20
5.960864649353212
 30
0.0
  0
ENDBLK
  5
FF
330
F7
100
AcDbEntity
  8
0
100
AcDbBlockEnd
  0
BLOCK
  5
110
330
109
100
AcDbEntity
  8
0
100
AcDbBlockBegin
  2
*D6
 70
     1
 10
0.0
 20
0.0
 30
0.0
  3
*D6
  1

  0
LINE
  5
173
330
109
100
AcDbEntity
  8
DIMS
 62
     0
100
AcDbLine
 10
303.1963812110418
 20
-16.96385887188773
 30
0.0
 11
265.8631765788405
 21
-5.644920817262004
 31
0.0
  0
MTEXT
  5
174
330
109
100
AcDbEntity
  8
DIMS
 62
     0
100
AcDbMText
 10
298.2184495059796
 20
-13.27763431344146
 30
0.0
 40
2.5
 41
0.0
 71
     5
 72
     1
  1
R37,5
 11
0.9569828053911491
 21
-0.2901446366653815
 31
0.0
1001
ACAD
1000
MTEXTBEGIN
1070
    73
1070
     1
1070
    44
1040
1.0
1070
    74
1070
     0
1000
MTEXTEND
  0
LINE
  5
175
330
109
100
AcDbEntity
  8
DIMS
 62
     0
100
AcDbLine
 10
227.5838643631947
 20
5.96086464935319
 30
0.0
 11
263.4707195653626
 21
-4.919559225598547
 31
0.0
  0
SOLID
  5
176
330
109
100
AcDbEntity
  8
DIMS
 62
     0
100
AcDbTrace
 10
265.984070177451
 20
-5.24617798168235
 30
0.0
 11
265.7422829802299
 21
-6.043663652841658
 31
0.0
 12
263.4707195653626
 22
-4.919559225598547
 32
0.0
 13
263.4707195653626
 23
-4.919559225598547
 33
0.0
  0
POINT
  5
177
330
109
100
AcDbEntity
  8
DEFPOINTS
 62
     0
100
AcDbPoint
 10
263.4707195653626
 20
-4.919559225598547
 30
0.0
  0
POINT
  5
178
330
109
100
AcDbEntity
  8
DEFPOINTS
 62
     0
100
AcDbPoint
 10
227.5838643631947
 20
5.96086464935319
 30
0.0
  0
ENDBLK
  5
111
330
109
100
AcDbEntity
  8
0
100
AcDbBlockEnd
  0
BLOCK
  5
125
330
11B
100
AcDbEntity
  8
0
100
AcDbBlockBegin
  2
*D7
 70
     1
 10
0.0
 20
0.0
 30
0.0
  3
*D7
  1

  0
LINE
  5
179
330
11B
100
AcDbEntity
  8
DIMS
 62
     0
100
AcDbLine
 10
227.8963643631946
 20
-32.08040122801207
 30
0.0
 11
243.5434048223398
 21
-59.18187029133746
 31
0.0
  0
LINE
  5
17A
330
11B
100
AcDbEntity
  8
DIMS
 62
     0
100
AcDbLine
 10
260.372317005111
 20
-13.3304012280121
 30
0.0
 11
276.0193574642562
 21
-40.43187029133749
 31
0.0
  0
LINE
  5
17B
330
11B
100
AcDbEntity
  8
DIMS
 62
     0
100
AcDbLine
 10
245.0834683318009
 20
-56.84933853660694
 30
0.0
 11
273.2292939547951
 21
-40.59933853660696
 31
0.0
  0
SOLID
  5
17C
330
11B
100
AcDbEntity
  8
DIMS
 62
     0
100
AcDbTrace
 10
244.8751349984676
 20
-56.48849461836341
 30
0.0
 11
245.2918016651342
 21
-57.21018245485042
 31
0.0
 12
242.9184048223398
 22
-58.09933853660694
 32
0.0
 13
242.9184048223398
 23
-58.09933853660694
 33
0.0
  0
SOLID
  5
17D
330
11B
100
AcDbEntity
  8
DIMS
 62
     0
100
AcDbTrace
 10
273.0209606214618
 20
-40.23849461836344
 30
0.0
 11
273.4376272881285
 21
-40.96018245485045
 31
0.0
 12
275.3943574642562
 22
-39.34933853660696
 32
0.0
 13
275.3943574642562
 23
-39.34933853660696
 33
0.0
  0
MTEXT
  5
17E
330
11B
100
AcDbEntity
  8
DIMS
 62
     0
100
AcDbMText
 10
258.1147144766313
 20
-46.92011894538936
 30
0.0
 40
2.5
 41
0.0
 71
     5
 72
     1
  1
37,5
 11
0.8660254037844387
 21
0.4999999999999999
 31
0.0
1001
ACAD
1000
MTEXTBEGIN
1070
    73
1070
     1
1070
    44
1040
1.0
1070
    74
1070
     0
1000
MTEXTEND
  0
POINT
  5
17F
330
11B
100
AcDbEntity
  8
DEFPOINTS
 62
     0
100
AcDbPoint
 10
227.5838643631946
 20
-31.5391353506468
 30
0.0
  0
POINT
  5
180
330
11B
100
AcDbEntity
  8
DEFPOINTS
 62
     0
100
AcDbPoint
 10
260.059817005111
 20
-12.78913535064683
 30
0.0
  0
POINT
  5
181
330
11B
100
AcDbEntity
  8
DEFPOINTS
 62
     0
100
AcDbPoint
 10
275.3943574642562
 20
-39.34933853660696
 30
0.0
  0
ENDBLK
  5
126
330
11B
100
AcDbEntity
  8
0
100
AcDbBlockEnd
  0
BLOCK
  5
13A
330
133
100
AcDbEntity
  8
0
100
AcDbBlockBegin
  2
*D8
 70
     1
 10
0.0
 20
0.0
 30
0.0
  3
*D8
  1

  0
LINE
  5
16D
330
133
100
AcDbEntity
  8
DIMS
 62
     0
100
AcDbLine
 10
334.0855080855757
 20
23.14413098169996
 30
0.0
 11
239.924276682646
 21
7.951900506873457
 31
0.0
  0
MTEXT
  5
16E
330
133
100
AcDbEntity
  8
DIMS
 62
     0
100
AcDbMText
 10
330.4960760884273
 20
24.46424993427895
 30
0.0
 40
2.5
 41
0.0
 71
     5
 72
     1
  1
R10
 11
0.9872329855561144
 21
0.1592828686016198
 31
0.0
1001
ACAD
1000
MTEXTBEGIN
1070
    73
1070
     1
1070
    44
1040
1.0
1070
    74
1070
     0
1000
MTEXTEND
  0
LINE
  5
16F
330
133
100
AcDbEntity
  8
DIMS
 62
     0
100
AcDbLine
 10
227.5838643631944
 20
5.960864649353172
 30
0.0
 11
237.4561942187558
 21
7.553693335369402
 31
0.0
  0
SOLID
  5
170
330
133
100
AcDbEntity
  8
DIMS
 62
     0
100
AcDbTrace
 10
239.8579088207287
 20
8.363247584188506
 30
0.0
 11
239.9906445445634
 21
7.540553429558407
 31
0.0
 12
237.4561942187558
 22
7.553693335369402
 32
0.0
 13
237.4561942187558
 23
7.553693335369402
 33
0.0
  0
POINT
  5
171
330
133
100
AcDbEntity
  8
DEFPOINTS
 62
     0
100
AcDbPoint
 10
237.4561942187558
 20
7.553693335369402
 30
0.0
  0
POINT
  5
172
330
133
100
AcDbEntity
  8
DEFPOINTS
 62
     0
100
AcDbPoint
 10
227.5838643631944
 20
5.960864649353172
 30
0.0
  0
ENDBLK
  5
13B
330
133
100
AcDbEntity
  8
0
100
AcDbBlockEnd
  0
BLOCK
  5
1A8
330
1A5
100
AcDbEntity
  8
0
100
AcDbBlockBegin
  2
A$C250140E7
 70
     0
 10
0.0
 20
0.0
 30
0.0
  3
A$C250140E7
  1

  0
CIRCLE
  5
1A6
330
1A5
100
AcDbEntity
  8
0
  6
HIDDEN2
100
AcDbCircle
 10
32.47595264191645
 20
-18.75
 30
0.0
 40
37.5
  0
CIRCLE
  5
1A7
330
1A5
100
AcDbEntity
  8
0
 62
     1
100
AcDbCircle
 10
0.0
 20
0.0
 30
0.0
 40
7.0
  0
ENDBLK
  5
1A9
330
1A5
100
AcDbEntity
  8
0
100
AcDbBlockEnd
  0
BLOCK
  5
22F
330
223
100
AcDbEntity
  8
0
100
AcDbBlockBegin
  2
*D16
 70
     1
 10
0.0
 20
0.0
 30
0.0
  3
*D16
  1

  0
LINE
  5
266
330
223
100
AcDbEntity
  8
DIMS
 62
     0
100
AcDbLine
 10
169.451909134164
 20
39.52336464935292
 30
0.0
 11
143.5955812911775
 21
54.45152248975627
 31
0.0
  0
LINE
  5
267
330
223
100
AcDbEntity
  8
DIMS
 62
     0
100
AcDbLine
 10
144.4588643631946
 20
5.960864649353197
 30
0.0
 11
130.6025486823877
 21
5.960864649353219
 31
0.0
  0
ARC
  5
268
330
223
100
AcDbEntity
  8
DIMS
 62
     0
100
AcDbCircle
 10
227.5838643631947
 20
5.960864649353212
 30
0.0
 40
95.7313156808069
100
AcDbArc
 50
151.4963078523227
 51
178.5036921476775
  0
SOLID
  5
269
330
223
100
AcDbEntity
  8
DIMS
 62
     0
100
AcDbTrace
 10
143.0929562200963
 20
51.84892572886351
 30
0.0
 11
143.8200231061054
 21
51.44171793459444
 31
0.0
 12
144.6781130459081
 22
53.82652248975627
 32
0.0
 13
144.6781130459081
 23
53.82652248975627
 33
0.0
  0
SOLID
  5
26A
330
223
100
AcDbEntity
  8
DIMS
 62
     0
100
AcDbTrace
 10
132.3018232733677
 20
8.455210947085532
 30
0.0
 11
131.4685609826988
 21
8.466092095634031
 31
0.0
 12
131.8525486823877
 22
5.960864649353219
 32
0.0
 13
131.8525486823877
 23
5.960864649353219
 33
0.0
  0
MTEXT
  5
26B
330
223
100
AcDbEntity
  8
DIMS
 62
     0
100
AcDbMText
 10
133.3034032381795
 20
31.22323806983462
 30
0.0
 40
2.5
 41
0.0
 71
     5
 72
     1
  1
30°
 11
0.2588190451025186
 21
0.9659258262890688
 31
0.0
  0
POINT
  5
26C
330
223
100
AcDbEntity
  8
DEFPOINTS
 62
     0
100
AcDbPoint
 10
137.625853439814
 20
38.70290295925734
 30
0.0
  0
POINT
  5
26D
330
223
100
AcDbEntity
  8
DEFPOINTS
 62
     0
100
AcDbPoint
 10
169.9931750115292
 20
39.21086464935293
 30
0.0
  0
POINT
  5
26E
330
223
100
AcDbEntity
  8
DEFPOINTS
 62
     0
100
AcDbPoint
 10
227.5838643631946
 20
5.960864649353197
 30
0.0
  0
POINT
  5
26F
330
223
100
AcDbEntity
  8
DEFPOINTS
 62
     0
100
AcDbPoint
 10
145.0838643631946
 20
5.960864649353197
 30
0.0
  0
POINT
  5
270
330
223
100
AcDbEntity
  8
DEFPOINTS
 62
     0
100
AcDbPoint
 10
227.5838643631947
 20
5.96086464935319
 30
0.0
  0
ENDBLK
  5
230
330
223
100
AcDbEntity
  8
0
100
AcDbBlockEnd
  0
ENDSEC
  0
SECTION
  2
ENTITIES
  0
CIRCLE
  5
6C
102
{ACAD_REACTORS
330
107
102
}
330
1F
100
AcDbEntity
  8
LAYER1
100
AcDbCircle
 10
227.5838643631946
 20
5.960864649353197
 30
0.0
 40
52.5
  0
CIRCLE
  5
6D
102
{ACAD_REACTORS
330
D7
330
119
330
131
102
}
330
1F
100
AcDbEntity
  8
0
  6
HIDDEN2
100
AcDbCircle
 10
227.5838643631946
 20
5.960864649353197
 30
0.0
 40
37.5
  0
CIRCLE
  5
71
102
{ACAD_REACTORS
330
143
102
}
330
1F
100
AcDbEntity
  8
0
100
AcDbCircle
 10
227.5838643631946
 20
5.960864649353197
 30
0.0
 40
10.0
  0
CIRCLE
  5
72
330
1F
100
AcDbEntity
  8
0
100
AcDbCircle
 10
227.5838643631946
 20
43.4608646493532
 30
0.0
 40
7.0
  0
CIRCLE
  5
73
330
1F
100
AcDbEntity
  8
LAYER1
100
AcDbCircle
 10
190.0838643631946
 20
5.960864649353211
 30
0.0
 40
7.0
  0
CIRCLE
  5
74
330
1F
100
AcDbEntity
  8
0
100
AcDbCircle
 10
227.5838643631945
 20
-31.5391353506468
 30
0.0
 40
7.0
  0
CIRCLE
  5
75
330
1F
100
AcDbEntity
  8
LAYER1
100
AcDbCircle
 10
265.0838643631946
 20
5.960864649353155
 30
0.0
 40
7.0
  0
CIRCLE
  5
76
102
{ACAD_REACTORS
330
A7
330
D7
330
BF
102
}
330
1F
100
AcDbEntity
  8
0
 62
     1
100
AcDbCircle
 10
195.1079117212781
 20
24.7108646493532
 30
0.0
 40
7.0
  0
CIRCLE
  5
77
330
1F
100
AcDbEntity
  8
0
 62
     1
100
AcDbCircle
 10
195.1079117212781
 20
-12.78913535064679
 30
0.0
 40
7.0
  0
CIRCLE
  5
79
102
{ACAD_REACTORS
330
131
102
}
330
1F
100
AcDbEntity
  8
0
 62
     1
100
AcDbCircle
 10
260.059817005111
 20
-12.78913535064682
 30
0.0
 40
7.0
  0
CIRCLE
  5
7A
102
{ACAD_REACTORS
330
BF
102
}
330
1F
100
AcDbEntity
  8
0
 62
     1
100
AcDbCircle
 10
260.059817005111
 20
24.71086464935317
 30
0.0
 40
7.0
  0
CIRCLE
  5
7C
330
1F
100
AcDbEntity
  8
LAYER1
100
AcDbCircle
 10
133.0857990436511
 20
4.122046711310304
 30
0.0
 40
30.0
  0
CIRCLE
  5
7D
330
1F
100
AcDbEntity
  8
LAYER1
100
AcDbCircle
 10
133.0857990436511
 20
4.122046711310304
 30
0.0
 40
15.0
  0
CIRCLE
  5
7E
330
1F
100
AcDbEntity
  8
LAYER1
100
AcDbCircle
 10
227.5838643631946
 20
5.960864649353197
 30
0.0
 40
22.5
  0
XLINE
  5
7F
102
{ACAD_REACTORS
330
EF
102
}
330
1F
100
AcDbEntity
  8
LAYER1
  6
HIDDEN2
100
AcDbXline
 10
227.5838643631946
 20
58.4608646493532
 30
0.0
 11
1.0
 21
0.0
 31
0.0
  0
XLINE
  5
80
330
1F
100
AcDbEntity
  8
LAYER1
  6
HIDDEN2
100
AcDbXline
 10
227.5838643631946
 20
28.4608646493532
 30
0.0
 11
1.0
 21
0.0
 31
0.0
  0
XLINE
  5
81
330
1F
100
AcDbEntity
  8
LAYER1
  6
HIDDEN2
100
AcDbXline
 10
227.5838643631946
 20
15.96086464935319
 30
0.0
 11
1.0
 21
0.0
 31
0.0
  0
XLINE
  5
82
102
{ACAD_REACTORS
330
EF
102
}
330
1F
100
AcDbEntity
  8
LAYER1
  6
HIDDEN2
100
AcDbXline
 10
227.5838643631946
 20
43.4608646493532
 30
0.0
 11
1.0
 21
0.0
 31
0.0
  0
XLINE
  5
83
330
1F
100
AcDbEntity
  8
LAYER1
  6
HIDDEN2
100
AcDbXline
 10
227.5838643631946
 20
-4.039135350646802
 30
0.0
 11
1.0
 21
0.0
 31
0.0
  0
XLINE
  5
84
330
1F
100
AcDbEntity
  8
LAYER1
  6
HIDDEN2
100
AcDbXline
 10
227.5838643631946
 20
-16.5391353506468
 30
0.0
 11
1.0
 21
0.0
 31
0.0
  0
XLINE
  5
85
330
1F
100
AcDbEntity
  8
LAYER1
  6
HIDDEN2
100
AcDbXline
 10
227.5838643631945
 20
-31.5391353506468
 30
0.0
 11
1.0
 21
0.0
 31
0.0
  0
XLINE
  5
86
330
1F
100
AcDbEntity
  8
LAYER1
  6
HIDDEN2
100
AcDbXline
 10
227.5838643631946
 20
-46.5391353506468
 30
0.0
 11
1.0
 21
0.0
 31
0.0
  0
DIMENSION
  5
8F
102
{ACAD_XDICTIONARY
360
9D
102
}
102
{ACAD_REACTORS
330
A7
102
}
330
1F
100
AcDbEntity
  8
DIMS
100
AcDbDimension
  2
*D1
 10
170.1489865091534
 20
24.71086464935321
 30
0.0
 11
168.0656531758201
 21
5.960864649353237
 31
0.0
 70
    32
  3
ISO-25
100
AcDbAlignedDimension
 13
195.1079117212781
 23
-12.78913535064679
 33
0.0
 14
195.1079117212781
 24
24.7108646493532
 34
0.0
 50
90.0
100
AcDbRotatedDimension
  0
DIMENSION
  5
A8
102
{ACAD_XDICTIONARY
360
B5
102
}
102
{ACAD_REACTORS
330
BF
102
}
330
1F
100
AcDbEntity
  8
DIMS
100
AcDbDimension
  2
*D2
 10
260.059817005111
 20
78.83293430932747
 30
0.0
 11
227.5838643631946
 21
80.91626764266079
 31
0.0
 70
    32
  3
ISO-25
100
AcDbAlignedDimension
 13
195.1079117212781
 23
24.7108646493532
 33
0.0
 14
260.059817005111
 24
24.71086464935317
 34
0.0
100
AcDbRotatedDimension
  0
DIMENSION
  5
C0
102
{ACAD_XDICTIONARY
360
CD
102
}
102
{ACAD_REACTORS
330
D7
102
}
330
1F
100
AcDbEntity
  8
DIMS
100
AcDbDimension
  2
*D3
 10
234.9784280269158
 20
18.768624614721
 30
0.0
 11
219.7821183726242
 21
29.94784420593859
 31
0.0
 70
    33
  3
ISO-25
100
AcDbAlignedDimension
 13
195.1079117212781
 23
24.7108646493532
 33
0.0
 14
227.5838643631946
 24
5.960864649353197
 34
0.0
  0
DIMENSION
  5
D8
102
{ACAD_XDICTIONARY
360
E5
102
}
102
{ACAD_REACTORS
330
EF
102
}
330
1F
100
AcDbEntity
  8
DIMS
100
AcDbDimension
  2
*D4
 10
175.1598955659342
 20
43.46086464935321
 30
0.0
 11
173.2848955659342
 21
50.96086464935324
 31
0.0
 70
    33
  3
ISO-25
100
AcDbAlignedDimension
 13
227.5838643631946
 23
58.4608646493532
 33
0.0
 14
227.5838643631946
 24
43.4608646493532
 34
0.0
  0
DIMENSION
  5
F6
102
{ACAD_XDICTIONARY
360
100
102
}
102
{ACAD_REACTORS
330
107
102
}
330
1F
100
AcDbEntity
  8
DIMS
100
AcDbDimension
  2
*D5
 10
227.5838643631946
 20
5.960864649353212
 30
0.0
 11
298.7990072118052
 21
53.09840112568135
 31
0.0
 70
   164
  3
ISO-25
100
AcDbRadialDimension
 15
271.362513043654
 25
34.9380957060451
 35
0.0
 40
0.0
1001
ACAD
1000
DSTYLE
1002
{
1070
   288
1070
     1
1002
}
  0
DIMENSION
  5
108
102
{ACAD_XDICTIONARY
360
112
102
}
102
{ACAD_REACTORS
330
119
102
}
330
1F
100
AcDbEntity
  8
DIMS
100
AcDbDimension
  2
*D6
 10
227.5838643631947
 20
5.96086464935319
 30
0.0
 11
297.6139815129267
 21
-15.27134849133969
 31
0.0
 70
   164
  3
ISO-25
100
AcDbRadialDimension
 15
263.4707195653626
 25
-4.919559225598547
 35
0.0
 40
0.0
1001
ACAD
1000
DSTYLE
1002
{
1070
   288
1070
     1
1002
}
  0
DIMENSION
  5
11A
102
{ACAD_XDICTIONARY
360
127
102
}
102
{ACAD_REACTORS
330
131
102
}
330
1F
100
AcDbEntity
  8
DIMS
100
AcDbDimension
  2
*D7
 10
275.3943574642562
 20
-39.34933853660696
 30
0.0
 11
258.1147144766313
 21
-46.92011894538936
 31
0.0
 70
    33
  3
ISO-25
100
AcDbAlignedDimension
 13
227.5838643631946
 23
-31.5391353506468
 33
0.0
 14
260.059817005111
 24
-12.78913535064682
 34
0.0
  0
DIMENSION
  5
132
102
{ACAD_XDICTIONARY
360
13C
102
}
102
{ACAD_REACTORS
330
143
102
}
330
1F
100
AcDbEntity
  8
DIMS
100
AcDbDimension
  2
*D8
 10
227.5838643631944
 20
5.960864649353172
 30
0.0
 11
330.7947314670554
 21
22.61318808636124
 31
0.0
 70
   164
  3
ISO-25
100
AcDbRadialDimension
 15
237.4561942187558
 25
7.553693335369402
 35
0.0
 40
0.0
1001
ACAD
1000
DSTYLE
1002
{
1070
   288
1070
     1
1002
}
  0
CIRCLE
  5
18B
330
1F
100
AcDbEntity
  8
0
  6
HIDDEN2
100
AcDbCircle
 10
227.5838643631946
 20
5.960864649353197
 30
0.0
 40
66.5
  0
CIRCLE
  5
18C
330
1F
100
AcDbEntity
  8
0
100
AcDbCircle
 10
227.5838643631946
 20
5.960864649353197
 30
0.0
 40
82.5
  0
RAY
  5
18E
330
1F
100
AcDbEntity
  8
LAYER1
  6
HIDDEN2
100
AcDbRay
 10
227.5838643631946
 20
5.960864649353197
 30
0.0
 11
-0.8660254037844385
 21
0.5000000000000001
 31
0.0
  0
RAY
  5
18F
330
1F
100
AcDbEntity
  8
LAYER1
  6
HIDDEN2
100
AcDbRay
 10
227.5838643631946
 20
5.960864649353197
 30
0.0
 11
0.0
 21
1.0
 31
0.0
  0
RAY
  5
191
330
1F
100
AcDbEntity
  8
LAYER1
  6
HIDDEN2
100
AcDbRay
 10
227.5838643631946
 20
5.960864649353197
 30
0.0
 11
-0.0000000000000006
 21
-1.0
 31
0.0
  0
RAY
  5
192
330
1F
100
AcDbEntity
  8
LAYER1
  6
HIDDEN2
100
AcDbRay
 10
227.5838643631946
 20
5.960864649353197
 30
0.0
 11
0.8660254037844383
 21
-0.5000000000000009
 31
0.0
  0
RAY
  5
193
330
1F
100
AcDbEntity
  8
LAYER1
  6
HIDDEN2
100
AcDbRay
 10
227.5838643631946
 20
5.960864649353197
 30
0.0
 11
-0.8660254037844389
 21
-0.4999999999999999
 31
0.0
  0
RAY
  5
194
330
1F
100
AcDbEntity
  8
LAYER1
  6
HIDDEN2
100
AcDbRay
 10
227.5838643631946
 20
5.960864649353197
 30
0.0
 11
0.8660254037844392
 21
0.4999999999999992
 31
0.0
  0
LINE
  5
19F
102
{ACAD_REACTORS
330
23D
102
}
330
1F
100
AcDbEntity
  8
0
100
AcDbLine
 10
227.5838643631946
 20
5.960864649353197
 30
0.0
 11
145.0838643631946
 21
5.960864649353207
 31
0.0
  0
LINE
  5
1A2
330
1F
100
AcDbEntity
  8
0
100
AcDbLine
 10
268.8338643631946
 20
-65.48623116286297
 30
0.0
 11
227.5838643631946
 21
5.960864649353197
 31
0.0
  0
LINE
  5
1A3
330
1F
100
AcDbEntity
  8
0
100
AcDbLine
 10
227.5838643631946
 20
5.960864649353197
 30
0.0
 11
268.8338643631946
 21
77.40796046156903
 31
0.0
  0
CIRCLE
  5
1B0
330
1F
100
AcDbEntity
  8
0
 62
     1
100
AcDbCircle
 10
169.9931750115292
 20
39.21086464935292
 30
0.0
 40
7.0
  0
CIRCLE
  5
1B6
330
1F
100
AcDbEntity
  8
0
 62
     1
100
AcDbCircle
 10
227.5838643631946
 20
72.4608646493532
 30
0.0
 40
7.0
  0
CIRCLE
  5
1BC
330
1F
100
AcDbEntity
  8
0
 62
     1
100
AcDbCircle
 10
285.1745537148599
 20
39.21086464935287
 30
0.0
 40
7.0
  0
CIRCLE
  5
1C2
330
1F
100
AcDbEntity
  8
0
 62
     1
100
AcDbCircle
 10
285.1745537148598
 20
-27.28913535064656
 30
0.0
 40
7.0
  0
CIRCLE
  5
1C8
330
1F
100
AcDbEntity
  8
0
 62
     1
100
AcDbCircle
 10
227.5838643631946
 20
-60.53913535064681
 30
0.0
 40
7.0
  0
CIRCLE
  5
1CE
330
1F
100
AcDbEntity
  8
0
 62
     1
100
AcDbCircle
 10
169.9931750115292
 20
-27.28913535064652
 30
0.0
 40
7.0
  0
LINE
  5
221
102
{ACAD_REACTORS
330
23D
102
}
330
1F
100
AcDbEntity
  8
DIMS
100
AcDbLine
 10
169.9931750115292
 20
39.21086464935292
 30
0.0
 11
227.5838643631947
 21
5.96086464935319
 31
0.0
  0
DIMENSION
  5
222
102
{ACAD_XDICTIONARY
360
231
102
}
102
{ACAD_REACTORS
330
23D
102
}
330
1F
100
AcDbEntity
  8
DIMS
100
AcDbDimension
  2
*D16
 10
227.5838643631947
 20
5.96086464935319
 30
0.0
 11
133.3034032381795
 21
31.22323806983462
 31
0.0
 70
    34
  3
ISO-25
100
AcDb2LineAngularDimension
 13
227.5838643631946
 23
5.960864649353197
 33
0.0
 14
145.0838643631946
 24
5.960864649353207
 34
0.0
 15
169.9931750115292
 25
39.21086464935292
 35
0.0
 16
137.625853439814
 26
38.70290295925734
 36
0.0
1001
ACAD
1000
DSTYLE
1002
{
1070
   271
1070
     0
1002
}
  0
ENDSEC
  0
SECTION
  2
OBJECTS
  0
DICTIONARY
  5
C
330
0
100
AcDbDictionary
  3
ACAD_GROUP
350
D
  3
ACAD_LAYOUT
350
1A
  3
ACAD_MLINESTYLE
350
17
  3
ACAD_PLOTSETTINGS
350
19
  3
ACAD_PLOTSTYLENAME
350
E
  3
ACDBHEADERROUNDTRIPXREC
350
23F
  3
ACDBVARIABLEDICTIONARY
350
5E
  0
DICTIONARY
  5
260
330
1F
100
AcDbDictionary
280
     1
  3
ACAD_LAYOUTSELFREF
360
261
  0
DICTIONARY
  5
262
330
50
100
AcDbDictionary
280
     1
  3
ACAD_LAYOUTSELFREF
360
263
  0
DICTIONARY
  5
9D
330
8F
100
AcDbDictionary
280
     1
  3
ACAD_DIMASSOC
360
A7
  0
DICTIONARY
  5
B5
330
A8
100
AcDbDictionary
280
     1
  3
ACAD_DIMASSOC
360
BF
  0
DICTIONARY
  5
CD
330
C0
100
AcDbDictionary
280
     1
  3
ACAD_DIMASSOC
360
D7
  0
DICTIONARY
  5
E5
330
D8
100
AcDbDictionary
280
     1
  3
ACAD_DIMASSOC
360
EF
  0
DICTIONARY
  5
100
330
F6
100
AcDbDictionary
280
     1
  3
ACAD_DIMASSOC
360
107
  0
DICTIONARY
  5
112
330
108
100
AcDbDictionary
280
     1
  3
ACAD_DIMASSOC
360
119
  0
DICTIONARY
  5
127
330
11A
100
AcDbDictionary
280
     1
  3
ACAD_DIMASSOC
360
131
  0
DICTIONARY
  5
13C
330
132
100
AcDbDictionary
280
     1
  3
ACAD_DIMASSOC
360
143
  0
DICTIONARY
  5
231
330
222
100
AcDbDictionary
280
     1
  3
ACAD_DIMASSOC
360
23D
  0
DICTIONARY
  5
D
102
{ACAD_REACTORS
330
C
102
}
330
C
100
AcDbDictionary
  0
DICTIONARY
  5
1A
102
{ACAD_REACTORS
330
C
102
}
330
C
100
AcDbDictionary
  0
DICTIONARY
  5
17
102
{ACAD_REACTORS
330
C
102
}
330
C
100
AcDbDictionary
  3
STANDARD
350
18
  0
DICTIONARY
  5
19
102
{ACAD_REACTORS
330
C
102
}
330
C
100
AcDbDictionary
  0
ACDBDICTIONARYWDFLT
  5
E
102
{ACAD_REACTORS
330
C
102
}
330
C
100
AcDbDictionary
281
     1
  3
Normal
350
F
100
AcDbDictionaryWithDefault
340
F
  0
DICTIONARY
  5
23F
102
{ACAD_REACTORS
330
C
102
}
330
C
100
AcDbDictionary
  3
CEPSNTYPE
350
249
  3
DIMSTYLEDATA
350
24D
  3
FINGERPRINTGUID
350
24A
  3
HYPERLINKBASE
350
242
  3
INSUNITS
350
248
  3
LAYOUTDICT
350
244
  3
LWETCUNION
350
247
  3
PLOTSETDICT
350
245
  3
PLOTSTYLNAMDICT
350
246
  3
PSVPSCALE
350
24C
  3
PUCSBASE
350
250
  3
PUCSORGBACK
350
256
  3
PUCSORGBOTTOM
350
252
  3
PUCSORGFRONT
350
255
  3
PUCSORGLEFT
350
253
  3
PUCSORGRIGHT
350
254
  3
PUCSORGTOP
350
251
  3
PUCSORTHOREF
350
24E
  3
PUCSORTHOVIEW
350
24F
  3
STYLESHEET
350
243
  3
TSTACKALIGN
350
240
  3
TSTACKSIZE
350
241
  3
UCSBASE
350
259
  3
UCSORGBACK
350
25F
  3
UCSORGBOTTOM
350
25B
  3
UCSORGFRONT
350
25E
  3
UCSORGLEFT
350
25C
  3
UCSORGRIGHT
350
25D
  3
UCSORGTOP
350
25A
  3
UCSORTHOREF
350
257
  3
UCSORTHOVIEW
350
258
  3
VERSIONGUID
350
24B
  0
DICTIONARY
  5
5E
102
{ACAD_REACTORS
330
C
102
}
330
C
100
AcDbDictionary
  3
DIMASSOC
350
5F
  3
HIDETEXT
350
63
  0
XRECORD
  5
261
102
{ACAD_REACTORS
330
260
102
}
330
260
100
AcDbXrecord
340
1F
  0
XRECORD
  5
263
102
{ACAD_REACTORS
330
262
102
}
330
262
100
AcDbXrecord
340
50
  0
DIMASSOC
  5
A7
102
{ACAD_REACTORS
330
9D
102
}
330
9D
100
AcDbDimAssoc
330
8F
 90
        2
 70
     0
 71
     0
  1
AcDbOsnapPointRef
 72
     3
331
76
 73
     2
 91
        0
 40
0.0
 10
195.1079117212781
 20
24.7108646493532
 30
0.0
 75
     0
  0
DIMASSOC
  5
BF
102
{ACAD_REACTORS
330
B5
102
}
330
B5
100
AcDbDimAssoc
330
A8
 90
        3
 70
     0
 71
     0
  1
AcDbOsnapPointRef
 72
     3
331
76
 73
     2
 91
        0
 40
0.0
 10
195.1079117212781
 20
24.7108646493532
 30
0.0
 75
     0
  1
AcDbOsnapPointRef
 72
     3
331
7A
 73
     2
 91
        0
 40
0.0
 10
260.059817005111
 20
24.71086464935317
 30
0.0
 75
     0
  0
DIMASSOC
  5
D7
102
{ACAD_REACTORS
330
CD
102
}
330
CD
100
AcDbDimAssoc
330
C0
 90
        3
 70
     0
 71
     0
  1
AcDbOsnapPointRef
 72
     3
331
76
 73
     2
 91
        0
 40
0.0
 10
195.1079117212781
 20
24.7108646493532
 30
0.0
 75
     0
  1
AcDbOsnapPointRef
 72
     3
331
6D
 73
     2
 91
        0
 40
0.0
 10
227.5838643631946
 20
5.960864649353197
 30
0.0
 75
     0
  0
DIMASSOC
  5
EF
102
{ACAD_REACTORS
330
E5
102
}
330
E5
100
AcDbDimAssoc
330
D8
 90
        3
 70
     0
 71
     0
  1
AcDbOsnapPointRef
 72
     2
331
7F
 73
     2
 91
        0
 40
0.0
 10
227.5838643631946
 20
58.4608646493532
 30
0.0
 75
     0
  1
AcDbOsnapPointRef
 72
     2
331
82
 73
     2
 91
        0
 40
0.0
 10
227.5838643631946
 20
43.4608646493532
 30
0.0
 75
     0
  0
DIMASSOC
  5
107
102
{ACAD_REACTORS
330
100
102
}
330
100
100
AcDbDimAssoc
330
F6
 90
        2
 70
     0
 71
     0
  1
AcDbOsnapPointRef
 72
     3
331
6C
 73
     2
 91
        0
 40
0.0
 10
0.0
 20
0.0
 30
0.0
 75
     0
  0
DIMASSOC
  5
119
102
{ACAD_REACTORS
330
112
102
}
330
112
100
AcDbDimAssoc
330
108
 90
        2
 70
     0
 71
     0
  1
AcDbOsnapPointRef
 72
     3
331
6D
 73
     2
 91
        0
 40
0.0
 10
0.0
 20
0.0
 30
0.0
 75
     0
  0
DIMASSOC
  5
131
102
{ACAD_REACTORS
330
127
102
}
330
127
100
AcDbDimAssoc
330
11A
 90
        3
 70
     0
 71
     0
  1
AcDbOsnapPointRef
 72
     5
331
6D
 73
     2
 91
        0
 40
4.712388980384689
 10
227.5838643631946
 20
-31.5391353506468
 30
0.0
 75
     0
  1
AcDbOsnapPointRef
 72
     3
331
79
 73
     2
 91
        0
 40
0.0
 10
260.059817005111
 20
-12.78913535064682
 30
0.0
 75
     0
  0
DIMASSOC
  5
143
102
{ACAD_REACTORS
330
13C
102
}
330
13C
100
AcDbDimAssoc
330
132
 90
        2
 70
     0
 71
     0
  1
AcDbOsnapPointRef
 72
     3
331
71
 73
     2
 91
        0
 40
0.0
 10
0.0
 20
0.0
 30
0.0
 75
     0
  0
DIMASSOC
  5
23D
102
{ACAD_REACTORS
330
231
102
}
330
231
100
AcDbDimAssoc
330
222
 90
       15
 70
     0
 71
     0
  1
AcDbOsnapPointRef
 72
    13
331
19F
 73
     2
 91
        0
 40
0.0
 10
227.5838643631946
 20
5.960864649353197
 30
0.0
 75
     0
  1
AcDbOsnapPointRef
 72
     1
331
19F
 73
     2
 91
        0
 40
1.0
 10
145.0838643631946
 20
5.960864649353207
 30
0.0
 75
     0
  1
AcDbOsnapPointRef
 72
    13
331
221
 73
     2
 91
        0
 40
0.0
 10
169.9931750115292
 20
39.21086464935292
 30
0.0
 75
     0
  1
AcDbOsnapPointRef
 72
     1
331
221
 73
     2
 91
        0
 40
1.0
 10
227.5838643631947
 20
5.96086464935319
 30
0.0
 75
     0
  0
MLINESTYLE
  5
18
102
{ACAD_REACTORS
330
17
102
}
330
17
100
AcDbMlineStyle
  2
STANDARD
 70
     0
  3

 62
   256
 51
90.0
 52
90.0
 71
     2
 49
0.5
 62
   256
  6
BYLAYER
 49
-0.5
 62
   256
  6
BYLAYER
  0
ACDBPLACEHOLDER
  5
F
102
{ACAD_REACTORS
330
E
102
}
330
E
100
AcDbPlaceHolder
280
     0
  0
XRECORD
  5
249
102
{ACAD_REACTORS
330
23F
102
}
330
23F
100
AcDbXrecord
 90
        0
  0
XRECORD
  5
24D
102
{ACAD_REACTORS
330
23F
102
}
330
23F
100
AcDbXrecord
1000
DSTYLE
1002
{
1070
   278
 70
    44
1002
}
  0
XRECORD
  5
24A
102
{ACAD_REACTORS
330
23F
102
}
330
23F
100
AcDbXrecord
  1
{FDEAD578-A652-11D2-9A35-0060089B3A3F}
  0
XRECORD
  5
242
102
{ACAD_REACTORS
330
23F
102
}
330
23F
100
AcDbXrecord
  1

  0
XRECORD
  5
248
102
{ACAD_REACTORS
330
23F
102
}
330
23F
100
AcDbXrecord
 90
        4
  0
XRECORD
  5
244
102
{ACAD_REACTORS
330
23F
102
}
330
23F
100
AcDbXrecord
340
1A
  0
XRECORD
  5
247
102
{ACAD_REACTORS
330
23F
102
}
330
23F
100
AcDbXrecord
 90
    10781
  0
XRECORD
  5
245
102
{ACAD_REACTORS
330
23F
102
}
330
23F
100
AcDbXrecord
340
19
  0
XRECORD
  5
246
102
{ACAD_REACTORS
330
23F
102
}
330
23F
100
AcDbXrecord
340
E
  0
XRECORD
  5
24C
102
{ACAD_REACTORS
330
23F
102
}
330
23F
100
AcDbXrecord
 40
0.0
  0
XRECORD
  5
250
102
{ACAD_REACTORS
330
23F
102
}
330
23F
100
AcDbXrecord
340
0
  0
XRECORD
  5
256
102
{ACAD_REACTORS
330
23F
102
}
330
23F
100
AcDbXrecord
 10
0.0
 20
0.0
 30
0.0
  0
XRECORD
  5
252
102
{ACAD_REACTORS
330
23F
102
}
330
23F
100
AcDbXrecord
 10
0.0
 20
0.0
 30
0.0
  0
XRECORD
  5
255
102
{ACAD_REACTORS
330
23F
102
}
330
23F
100
AcDbXrecord
 10
0.0
 20
0.0
 30
0.0
  0
XRECORD
  5
253
102
{ACAD_REACTORS
330
23F
102
}
330
23F
100
AcDbXrecord
 10
0.0
 20
0.0
 30
0.0
  0
XRECORD
  5
254
102
{ACAD_REACTORS
330
23F
102
}
330
23F
100
AcDbXrecord
 10
0.0
 20
0.0
 30
0.0
  0
XRECORD
  5
251
102
{ACAD_REACTORS
330
23F
102
}
330
23F
100
AcDbXrecord
 10
0.0
 20
0.0
 30
0.0
  0
XRECORD
  5
24E
102
{ACAD_REACTORS
330
23F
102
}
330
23F
100
AcDbXrecord
340
0
  0
XRECORD
  5
24F
102
{ACAD_REACTORS
330
23F
102
}
330
23F
100
AcDbXrecord
 70
     0
  0
XRECORD
  5
243
102
{ACAD_REACTORS
330
23F
102
}
330
23F
100
AcDbXrecord
  1

  0
XRECORD
  5
240
102
{ACAD_REACTORS
330
23F
102
}
330
23F
100
AcDbXrecord
 90
        1
  0
XRECORD
  5
241
102
{ACAD_REACTORS
330
23F
102
}
330
23F
100
AcDbXrecord
 90
       70
  0
XRECORD
  5
259
102
{ACAD_REACTORS
330
23F
102
}
330
23F
100
AcDbXrecord
340
0
  0
XRECORD
  5
25F
102
{ACAD_REACTORS
330
23F
102
}
330
23F
100
AcDbXrecord
 10
0.0
 20
0.0
 30
0.0
  0
XRECORD
  5
25B
102
{ACAD_REACTORS
330
23F
102
}
330
23F
100
AcDbXrecord
 10
0.0
 20
0.0
 30
0.0
  0
XRECORD
  5
25E
102
{ACAD_REACTORS
330
23F
102
}
330
23F
100
AcDbXrecord
 10
0.0
 20
0.0
 30
0.0
  0
XRECORD
  5
25C
102
{ACAD_REACTORS
330
23F
102
}
330
23F
100
AcDbXrecord
 10
0.0
 20
0.0
 30
0.0
  0
XRECORD
  5
25D
102
{ACAD_REACTORS
330
23F
102
}
330
23F
100
AcDbXrecord
 10
0.0
 20
0.0
 30
0.0
  0
XRECORD
  5
25A
102
{ACAD_REACTORS
330
23F
102
}
330
23F
100
AcDbXrecord
 10
0.0
 20
0.0
 30
0.0
  0
XRECORD
  5
257
102
{ACAD_REACTORS
330
23F
102
}
330
23F
100
AcDbXrecord
340
0
  0
XRECORD
  5
258
102
{ACAD_REACTORS
330
23F
102
}
330
23F
100
AcDbXrecord
 70
     0
  0
XRECORD
  5
24B
102
{ACAD_REACTORS
330
23F
102
}
330
23F
100
AcDbXrecord
  1
{84BA4F0E-B31C-4701-ABCE-8727F5FC3E7A}
  0
DICTIONARYVAR
  5
5F
102
{ACAD_REACTORS
330
5E
102
}
330
5E
100
DictionaryVariables
280
     0
  1
2
  0
DICTIONARYVAR
  5
63
102
{ACAD_REACTORS
330
5E
102
}
330
5E
100
DictionaryVariables
280
     0
  1
1
  0
ENDSEC
  0
EOF
